<svg width="371" height="774" viewBox="0 0 371 774" fill="none" xmlns="http://www.w3.org/2000/svg">
<path fill-rule="evenodd" clip-rule="evenodd" d="M314.136 127.924C331.022 206.26 377.38 194.599 359.353 287.549C356.529 302.113 348.111 314.952 336.658 324.381L314.35 342.748C286.124 365.986 244.76 363.553 219.454 337.165L214.71 332.219C214.725 332.477 214.695 331.959 214.71 332.219C186.249 329.062 118.409 330.964 100.958 309.87C85.2174 290.842 116.789 243.469 116.789 216.977L98.3797 115.603C98.3797 55.6592 154.909 2.42447 214.71 2.42447H235.141C289.566 10.7338 303.821 80.0737 314.136 127.924Z" fill="#351605"/>
<path d="M116.677 143.996C125.831 158.796 125.333 175.692 117.684 180.424C110.034 185.156 94.6401 178.089 85.4858 163.289C76.3314 148.489 71.0383 135.953 84.5327 126.828C96.3607 118.831 107.523 129.196 116.677 143.996Z" fill="#ECCBB7"/>
<path d="M272.303 149.44C272.05 214.604 230.037 274.08 189.21 274.08C148.383 274.08 105.83 218.276 105.83 149.44C105.83 80.603 115.332 27.415 189.21 24.7999C253.965 22.5076 272.303 80.603 272.303 149.44Z" fill="#F5D0B9"/>
<path d="M172.338 289.102C175.318 287.497 179.311 279.264 180.934 275.348C186.951 274.775 199.043 273.973 199.272 275.348C199.559 277.067 205.576 284.804 212.452 289.961C215.578 292.306 203.337 295.992 191.822 295.405C180.807 294.844 170.517 290.082 172.338 289.102Z" fill="#E3C8B7"/>
<path d="M162.856 121.79C165.528 119.417 144.627 115.527 142.659 114.361C132.31 111.161 126.059 114.556 120.7 115.773C115.34 116.99 115.142 117.444 116.012 117.226C120.596 116.08 132.19 117.191 136.928 117.799C141.666 118.408 159.516 124.756 162.856 121.79Z" fill="#670E00" stroke="#670E00" stroke-width="3.43834" stroke-linecap="round" stroke-linejoin="round"/>
<path d="M171.208 193.252C171.208 194.972 171.552 198.926 176.365 198.696C176.747 198.696 178.084 197.55 180.663 198.696C182.822 199.656 186.107 199.556 188.686 198.123" stroke="#670E00" stroke-width="3.43834" stroke-linecap="round" stroke-linejoin="round"/>
<path opacity="0.8" d="M207.31 231.371C206.193 245.502 181.836 253.111 171.781 230.501L207.31 231.371Z" fill="#E29090" stroke="#E29090" stroke-width="3.43834" stroke-linecap="round" stroke-linejoin="round"/>
<path d="M99.5756 138.525C107.024 176.634 116.767 217.321 139.976 247.12C160.921 274.012 225.935 314.454 268.627 183.224" stroke="#670E00" stroke-width="3.43834" stroke-linecap="round" stroke-linejoin="round"/>
<path opacity="0.8" d="M205.591 229.044C204.582 242.61 182.582 249.914 173.5 228.209L205.591 229.044Z" fill="#E29090" stroke="#E29090" stroke-width="3.43834" stroke-linecap="round" stroke-linejoin="round"/>
<path opacity="0.8" d="M187.951 220.758C179.915 215.484 174.557 219.829 171.781 223.548C183.622 224.985 205.591 226.489 205.591 224.055C195.791 214.318 190.646 218.476 187.951 220.758Z" fill="#E29090" stroke="#E29090" stroke-width="3.43834" stroke-linecap="round" stroke-linejoin="round"/>
<path d="M162.325 226.776C169.083 227.888 168.296 225.689 178.371 226.203C182.271 226.402 183.727 228.153 188.686 228.495C192.395 228.752 194.061 227.141 198.428 227.063C205.545 226.935 215.089 228.035 217.052 226.776M217.052 226.776L214.76 224.197M217.052 226.776C217.816 227.445 219.402 228.782 219.631 228.782" stroke="#670E00" stroke-width="3.43834" stroke-linecap="round" stroke-linejoin="round"/>
<path d="M179.231 246.547C182.955 247.979 184.587 248.496 189.546 248.839C193.254 249.095 195.849 248.839 199.288 247.406" stroke="#670E00" stroke-width="3.43834" stroke-linecap="round" stroke-linejoin="round"/>
<path d="M211.608 137.379C216.288 133.845 224.215 126.778 235.104 128.497" stroke="#670E00" stroke-width="1.71917" stroke-linecap="round" stroke-linejoin="round"/>
<path d="M162.612 137.379C157.932 133.845 150.005 126.778 139.116 128.497" stroke="#670E00" stroke-width="1.71917" stroke-linecap="round" stroke-linejoin="round"/>
<path d="M246.175 135.249C228.583 128.301 217.396 136.172 212.127 143.727C210.547 145.993 211.966 148.937 214.68 149.452C232.285 152.796 242.885 146.564 247.798 140.825C249.425 138.926 248.5 136.167 246.175 135.249Z" fill="#F8F0EE" stroke="#670E00" stroke-width="3.43834" stroke-linecap="round" stroke-linejoin="round"/>
<path d="M127.186 135.249C144.777 128.301 155.964 136.172 161.233 143.727C162.813 145.993 161.394 148.937 158.68 149.452C141.075 152.796 130.475 146.564 125.562 140.825C123.936 138.926 124.86 136.167 127.186 135.249Z" fill="#F8F0EE" stroke="#670E00" stroke-width="3.43834" stroke-linecap="round" stroke-linejoin="round"/>
<circle cx="226.794" cy="141.677" r="8.0228" fill="#670E00" stroke="#670E00" stroke-width="3.43834" stroke-linecap="round" stroke-linejoin="round"/>
<circle cx="146.566" cy="141.677" r="8.0228" fill="#670E00" stroke="#670E00" stroke-width="3.43834" stroke-linecap="round" stroke-linejoin="round"/>
<path d="M245.705 135.66L248.284 133.655" stroke="#670E00" stroke-width="6.87668" stroke-linecap="round" stroke-linejoin="round"/>
<path d="M128.515 135.087L125.936 133.081" stroke="#670E00" stroke-width="6.87668" stroke-linecap="round" stroke-linejoin="round"/>
<path d="M107.312 180.645C97.4744 179.881 79.8624 171.19 88.1145 142.537C86.3953 123.626 96.9968 122.48 99.5756 138.239" stroke="#670E00" stroke-width="3.43834" stroke-linecap="round" stroke-linejoin="round"/>
<path d="M94.9908 149.414C92.8896 152.47 90.2345 160.302 96.4235 167.178" stroke="#670E00" stroke-width="3.43834" stroke-linecap="round" stroke-linejoin="round"/>
<path opacity="0.2" d="M236.25 181.791L241.883 177.879C244.965 175.739 247.531 172.937 249.393 169.679L252.295 164.6" stroke="#E592A6" stroke-width="25.7876" stroke-linecap="round" stroke-linejoin="round"/>
<path opacity="0.2" d="M199.575 150.152L201.592 143.597C202.696 140.01 204.586 136.714 207.125 133.951L211.083 129.643" stroke="#E592A6" stroke-width="12.6073" stroke-linecap="round" stroke-linejoin="round"/>
<path opacity="0.2" d="M174.407 150.152L172.391 143.597C171.287 140.01 169.397 136.714 166.858 133.951L162.9 129.643" stroke="#E592A6" stroke-width="12.6073" stroke-linecap="round" stroke-linejoin="round"/>
<path opacity="0.2" d="M145.993 185.803L138.543 182.632C134.597 180.953 131.145 178.296 128.512 174.911L126.509 172.336" stroke="#E592A6" stroke-width="25.7876" stroke-linecap="round" stroke-linejoin="round"/>
<circle cx="199.574" cy="230.788" r="2.0057" fill="white"/>
<path d="M120.206 437.088V381.788C126.509 344.826 151.367 388.981 143.704 397.547C138.833 402.991 140.472 437.794 139.117 467.747C137.814 496.555 138.544 502.29 138.544 502.852C138.544 503.998 137.97 504.284 137.684 505.431C137.397 506.577 136.251 508.582 135.965 501.706C135.678 494.829 133.959 493.683 132.526 493.11C131.094 492.537 130.521 498.461 130.521 500.273C130.521 502.852 131.667 505.431 133.386 510.302C134.762 514.198 133.959 517.656 133.386 518.897C130.234 515.173 123.3 507.264 120.779 505.431C117.627 503.138 125.936 481.649 125.65 477.637C125.363 473.626 120.206 442.819 120.206 437.088Z" fill="#F5D0B9" stroke="#670E00" stroke-width="3.43834" stroke-linecap="round" stroke-linejoin="round"/>
<circle cx="231.092" cy="137.379" r="2.0057" fill="white"/>
<circle cx="151.437" cy="139.672" r="2.0057" fill="white"/>
<path d="M194.703 198.41L195.276 198.696" stroke="#670E00" stroke-width="3.43834" stroke-linecap="round" stroke-linejoin="round"/>
<circle cx="183.513" cy="701.703" r="9.16808" fill="#394E77" stroke="#132953" stroke-width="3.44"/>
<path d="M145.42 712.442C144.962 710.15 131.672 545.109 139.403 455.426C143.701 405.57 231.953 442.532 231.953 454.566C234.531 543.39 204.618 702.414 204.16 704.706C203.587 707.571 186.681 704.992 186.108 700.121C185.535 695.25 179.518 519.035 179.518 509.58L160.893 719.892C160.32 724.763 145.993 715.307 145.42 712.442Z" fill="#4E638B" stroke="#384867" stroke-width="3.43834" stroke-linecap="round" stroke-linejoin="round"/>
<path d="M175.456 735.078C175.456 732.786 171.254 723.235 169.153 718.746C168.293 714.161 168.58 712.156 168.293 709.577C168.007 706.998 172.018 700.694 173.164 696.397C174.081 692.958 176.221 693.818 176.889 694.677C178.417 696.11 181.703 699.778 182.62 702.987C183.537 706.196 188.35 706.998 190.642 706.998C190.738 706.425 191.158 704.649 192.075 702.127C193.221 698.975 208.694 700.694 208.694 702.987V707.858V712.442C208.694 714.734 214.424 722.471 214.997 723.33C215.57 724.19 212.992 728.774 217.576 730.78C222.161 732.786 224.739 739.949 224.739 740.808V751.123C223.593 758.86 214.711 757.714 202.104 757.714C182.932 757.714 175.456 737.943 175.456 735.078Z" fill="#6F7E9B"/>
<path d="M169.153 718.746L167.463 719.063L167.503 719.277L167.596 719.475L169.153 718.746ZM224.739 751.123L226.44 751.375L226.459 751.25V751.123H224.739ZM192.075 702.127L190.459 701.54L192.075 702.127ZM190.642 706.998L190.642 708.717L192.099 708.717L192.338 707.281L190.642 706.998ZM176.889 694.677L175.532 695.733L175.615 695.839L175.713 695.932L176.889 694.677ZM173.164 696.397L174.825 696.84L173.164 696.397ZM168.293 709.577L170.002 709.387L168.293 709.577ZM167.596 719.475C168.638 721.701 170.201 725.182 171.5 728.382C172.15 729.984 172.725 731.494 173.135 732.731C173.34 733.35 173.497 733.881 173.601 734.308C173.712 734.764 173.737 735.002 173.737 735.078H177.176C177.176 734.58 177.069 734.019 176.942 733.496C176.808 732.945 176.621 732.318 176.399 731.649C175.955 730.311 175.349 728.722 174.686 727.089C173.358 723.818 171.769 720.28 170.71 718.017L167.596 719.475ZM173.737 735.078C173.737 735.697 173.917 736.519 174.167 737.362C174.432 738.256 174.826 739.333 175.352 740.52C176.404 742.893 178.012 745.765 180.251 748.548C184.736 754.121 191.848 759.433 202.104 759.433V755.994C193.188 755.994 186.976 751.421 182.93 746.392C180.904 743.875 179.445 741.267 178.496 739.127C178.022 738.057 177.682 737.119 177.463 736.384C177.354 736.016 177.279 735.71 177.232 735.473C177.209 735.354 177.194 735.26 177.185 735.188C177.181 735.152 177.178 735.125 177.177 735.106C177.176 735.086 177.176 735.077 177.176 735.078H173.737ZM202.104 759.433C208.234 759.433 213.879 759.728 218.012 759.014C220.124 758.649 222.068 757.993 223.585 756.744C225.151 755.454 226.101 753.666 226.44 751.375L223.039 750.872C222.805 752.449 222.214 753.419 221.399 754.09C220.534 754.802 219.255 755.31 217.427 755.626C213.68 756.273 208.581 755.994 202.104 755.994V759.433ZM226.459 751.123V740.808H223.02V751.123H226.459ZM226.459 740.808C226.459 740.435 226.351 740.019 226.274 739.747C226.178 739.406 226.042 738.998 225.872 738.55C225.53 737.652 225.028 736.533 224.373 735.376C223.101 733.132 221.078 730.435 218.265 729.205L216.887 732.355C218.659 733.13 220.218 735.018 221.381 737.072C221.943 738.064 222.373 739.023 222.658 739.772C222.801 740.147 222.902 740.456 222.965 740.679C223.047 740.972 223.02 740.967 223.02 740.808H226.459ZM218.265 729.205C217.411 728.831 217.019 728.402 216.815 728.042C216.598 727.659 216.502 727.194 216.502 726.625C216.502 726.035 216.599 725.468 216.697 724.836C216.74 724.556 216.793 724.2 216.803 723.869C216.811 723.613 216.82 722.965 216.428 722.377L213.567 724.284C213.318 723.91 213.372 723.594 213.366 723.76C213.363 723.853 213.345 724.012 213.298 724.313C213.216 724.846 213.063 725.712 213.063 726.625C213.063 727.561 213.218 728.671 213.825 729.74C214.444 730.83 215.449 731.726 216.887 732.355L218.265 729.205ZM216.428 722.377C216.026 721.774 214.616 719.876 213.075 717.49C212.335 716.346 211.635 715.191 211.127 714.203C210.872 713.708 210.68 713.284 210.556 712.944C210.42 712.571 210.413 712.425 210.413 712.442H206.975C206.975 713.032 207.146 713.63 207.326 714.122C207.517 714.647 207.778 715.21 208.07 715.776C208.653 716.91 209.422 718.173 210.187 719.356C211.654 721.627 213.395 724.026 213.567 724.284L216.428 722.377ZM210.413 712.442V707.858H206.975V712.442H210.413ZM210.413 707.858V702.987H206.975V707.858H210.413ZM210.413 702.987C210.413 701.709 209.397 700.986 208.924 700.696C208.313 700.322 207.541 700.029 206.746 699.794C205.131 699.316 203.037 698.969 200.952 698.802C198.87 698.634 196.685 698.637 194.896 698.91C194.007 699.046 193.129 699.261 192.388 699.609C191.677 699.943 190.828 700.525 190.459 701.54L193.691 702.715C193.609 702.941 193.494 702.888 193.849 702.721C194.173 702.569 194.692 702.419 195.415 702.309C196.849 702.09 198.747 702.074 200.677 702.229C202.603 702.384 204.449 702.7 205.771 703.091C206.444 703.29 206.89 703.482 207.129 703.629C207.507 703.86 206.975 703.691 206.975 702.987H210.413ZM190.459 701.54C189.519 704.125 189.065 706.008 188.947 706.716L192.338 707.281C192.411 706.843 192.797 705.172 193.691 702.715L190.459 701.54ZM190.643 705.279C189.649 705.279 188.086 705.099 186.719 704.586C185.307 704.057 184.508 703.338 184.273 702.514L180.967 703.459C181.648 705.845 183.714 707.131 185.512 707.806C187.354 708.496 189.344 708.717 190.642 708.717L190.643 705.279ZM184.273 702.514C183.728 700.608 182.529 698.688 181.357 697.132C180.167 695.551 178.897 694.203 178.065 693.423L175.713 695.932C176.41 696.584 177.546 697.786 178.61 699.2C179.693 700.638 180.595 702.157 180.967 703.459L184.273 702.514ZM178.246 693.622C177.642 692.845 176.375 692.004 174.87 692.224C173.151 692.476 172.042 693.934 171.503 695.954L174.825 696.84C175.011 696.143 175.22 695.818 175.334 695.687C175.427 695.581 175.44 695.616 175.369 695.626C175.328 695.632 175.341 695.617 175.412 695.651C175.491 695.689 175.536 695.738 175.532 695.733L178.246 693.622ZM171.503 695.954C170.978 697.923 169.78 700.389 168.627 702.918C168.072 704.137 167.531 705.366 167.148 706.471C166.787 707.513 166.467 708.709 166.585 709.767L170.002 709.387C169.976 709.156 170.05 708.596 170.397 707.597C170.721 706.66 171.201 705.561 171.756 704.345C172.823 702.003 174.204 699.168 174.825 696.84L171.503 695.954ZM166.585 709.767C166.721 710.991 166.714 711.993 166.791 713.497C166.866 714.957 167.017 716.682 167.463 719.063L170.843 718.429C170.429 716.225 170.293 714.655 170.225 713.321C170.159 712.032 170.152 710.742 170.002 709.387L166.585 709.767Z" fill="#132953"/>
<path d="M207 718C200.5 717.248 196.7 718.7 195.5 721.5M205.5 721.5C203.5 719.333 199 715.3 197 716.5" stroke="#132953" stroke-width="3.43834" stroke-linecap="round"/>
<path d="M210.5 727.719C204 726.967 200.2 728.419 199 731.219M209 731.219C207 729.052 202.5 725.019 200.5 726.219" stroke="#132953" stroke-width="3.43834" stroke-linecap="round"/>
<path fill-rule="evenodd" clip-rule="evenodd" d="M108.768 180.221C116.719 224.89 170.515 289.221 176.153 329.587C178.323 345.124 163.307 354.851 148.12 358.786L124.402 364.932C97.3364 371.946 68.6946 362.159 51.5798 340.05L26.2952 307.386C17.6538 296.222 12.3824 282.651 12.3001 268.535C11.7094 167.201 57.5016 211.779 60.993 109.431C61.2818 100.964 62.4352 92.4007 64.7461 84.2499C65.2118 82.6073 65.7599 81.1283 66.6473 79.6492L68.1264 76.3354C92.1652 27.1605 122.662 2.57306 159.618 2.57306C215.052 2.57306 299.557 17.7591 295.832 145.837C260.37 151.335 236.249 61.6221 223.975 42.6912C223.437 41.8619 222.282 42.2327 222.109 43.2059C217.287 70.3591 188.561 77.7531 175.49 81.3684C155.147 86.9953 143.53 81.6853 138.84 90.5373C134.66 98.4253 129.992 105.803 121.336 111.167C116.809 107.491 107.607 136.382 101.318 136.382C86.777 136.382 87.278 142.685 86.1314 155.006C86.1314 169.536 92.5075 179.934 107.048 179.934C107.449 179.934 108.371 180.238 108.768 180.221Z" fill="#351605"/>
<path d="M162.039 81.8306C179.591 85.0346 214.717 67.7579 221.365 31.3332C224.843 42.4116 228.788 67.0187 216.752 76.8198" stroke="#670E00" stroke-width="3.43834" stroke-linecap="round" stroke-linejoin="round"/>
<path d="M234.244 32.2234C235.726 40.6526 243.418 60.9345 262.324 74.6297" stroke="#670E00" stroke-width="3.43834" stroke-linecap="round" stroke-linejoin="round"/>
<path d="M262.897 55.7188C263.865 61.1863 268.888 74.3422 281.235 83.2255" stroke="#670E00" stroke-width="3.43834" stroke-linecap="round" stroke-linejoin="round"/>
<path d="M145.141 79.9261C139.155 92.6252 121.891 117.79 100.722 116.855" stroke="#670E00" stroke-width="3.43834" stroke-linecap="round" stroke-linejoin="round"/>
<path d="M294.686 107.813C301.992 112.234 312.653 119.274 312.653 171.973C314.559 212.642 357.848 189.156 347.344 277.366" stroke="#670E00" stroke-width="3.43834" stroke-linecap="round" stroke-linejoin="round"/>
<path d="M159.46 15.0317L126.223 23.0545" stroke="#670E00" stroke-width="3.43834" stroke-linecap="round" stroke-linejoin="round"/>
<path d="M262.037 15.3183C251.401 7.26652 240.385 3.11301 227.08 2.13807C211.889 1.02486 191.551 7.00893 191.551 7.00893" stroke="#670E00" stroke-width="3.43834" stroke-linecap="round" stroke-linejoin="round"/>
<path d="M121.352 15.3183C131.988 7.26652 143.004 3.11301 156.308 2.13807C171.499 1.02486 191.838 7.00893 191.838 7.00893" stroke="#670E00" stroke-width="3.43834" stroke-linecap="round" stroke-linejoin="round"/>
<path d="M289.264 196.691L294.064 230.544" stroke="#670E00" stroke-width="3.43834" stroke-linecap="round" stroke-linejoin="round"/>
<path d="M298.347 298.272L295.773 316.264" stroke="#670E00" stroke-width="3.43834" stroke-linecap="round" stroke-linejoin="round"/>
<path d="M266.586 235.086C266.586 235.086 264.456 245.691 264.517 252.564C264.632 265.618 272.826 284.942 272.826 284.942" stroke="#670E00" stroke-width="3.43834" stroke-linecap="round" stroke-linejoin="round"/>
<path d="M168.629 27.3524C127.942 35.3752 105.559 88.7549 97.1585 93.3199C89.6669 99.0365 88.4593 104.327 89.6349 107.687" stroke="#670E00" stroke-width="3.43834" stroke-linecap="round" stroke-linejoin="round"/>
<path d="M88.9738 78.313C81.6676 82.735 61.7957 125.877 61.7956 178.576C59.8894 219.245 16.6006 195.76 27.1052 283.969" stroke="#670E00" stroke-width="3.43834" stroke-linecap="round" stroke-linejoin="round"/>
<path d="M89.3688 257.127L84.5686 290.98" stroke="#670E00" stroke-width="3.43834" stroke-linecap="round" stroke-linejoin="round"/>
<path d="M115.695 296.551L115.08 315.751" stroke="#670E00" stroke-width="3.43834" stroke-linecap="round" stroke-linejoin="round"/>
<path d="M68.8537 216.748C68.8537 216.748 70.984 227.353 70.9231 234.226C70.8075 247.28 62.6138 266.604 62.6138 266.604" stroke="#670E00" stroke-width="3.43834" stroke-linecap="round" stroke-linejoin="round"/>
<path d="M180.377 274.34C180.186 277.969 177.855 286.26 170.062 290.386" stroke="#670E00" stroke-width="3.43834" stroke-linecap="round" stroke-linejoin="round"/>
<path d="M199.287 274.34C199.479 277.969 204.101 284.827 211.895 288.953" stroke="#670E00" stroke-width="3.43834" stroke-linecap="round" stroke-linejoin="round"/>
<path d="M172.338 286.236C187.238 293.801 201.66 289.388 209.3 286.236C253.14 293.113 264.043 374.052 264.616 376.917C265.163 379.653 228.356 383.173 228.271 391.716L228.513 392.963C231.493 400.527 233.002 438.139 233.384 455.999C202.63 458.387 140.606 461.73 138.543 455.999C136.48 450.269 139.403 411.587 141.122 392.963L116.767 383.507C115.392 331.703 153.905 295.883 172.338 286.236Z" fill="#9FAEE3"/>
<path d="M141.122 392.963L116.767 383.507C115.392 331.703 153.905 295.883 172.338 286.236C187.238 293.801 201.66 289.388 209.3 286.236C253.14 293.113 264.043 374.052 264.616 376.917C265.189 379.783 224.788 383.507 228.513 392.963M141.122 392.963C139.403 411.587 136.48 450.269 138.543 455.999C140.606 461.73 202.63 458.387 233.384 455.999C233.002 438.139 231.493 400.527 228.513 392.963M141.122 392.963L144.274 376.917M228.513 392.963L224.502 372.333" stroke="#6376BC" stroke-width="3.43834" stroke-linecap="round" stroke-linejoin="round"/>
<path d="M166.288 733.072C165.905 737.084 165.199 746.138 165.428 750.264C165.868 758.189 154.684 759.391 148.758 754.109C130.5 737.832 106.976 716.098 106.976 713.015C107.263 710.15 113.853 705.852 115.285 704.992C116.718 704.133 121.876 702.987 128.752 703.846C133.138 704.394 136.965 707.65 139.16 710.157C139.963 711.076 141.317 711.349 142.474 710.964C145.453 709.971 149.664 710.109 151.675 715.594C154.826 724.19 159.984 722.184 161.703 721.038C164.755 719.003 166.288 725.606 166.288 729.274V733.072Z" fill="#6F7E9B" stroke="#132953" stroke-width="3.43834"/>
<path d="M127.893 755.708C123.022 749.405 119.297 750.522 113.853 744.534C110.328 740.656 108.267 736.968 107.11 733.645C106.916 733.087 106.747 732.538 106.601 732.001C105.765 729.087 104.684 724.301 104.684 720.179C104.684 713.875 107.836 711.869 111.274 709.291C114.712 706.712 123.881 706.998 127.893 709.29C131.102 711.124 136.394 715.881 138.208 718.746C139.45 720.752 142.956 727.915 144.56 733.645C146.566 740.809 149.669 742.814 153.68 746.826C155.251 748.396 156.565 750.031 157.576 751.447C159.113 753.601 159.774 756.214 159.811 758.86C159.84 760.919 159.826 763.207 159.697 764.877C159.468 767.857 153.871 770.512 151.102 771.467C145.944 774.619 133.578 763.065 127.893 755.708Z" fill="#183368"/>
<path d="M151.102 771.467C145.944 774.619 133.578 763.065 127.893 755.708C123.022 749.405 119.297 750.522 113.853 744.534C110.328 740.656 108.267 736.968 107.11 733.645M151.102 771.467C156.259 768.315 157.692 762.298 156.259 758.287C154.827 754.276 148.237 748.545 146.804 746.826C145.371 745.107 141.36 742.528 141.073 739.949C140.787 737.37 139.068 732.499 138.208 729.921C137.645 728.232 135.508 724.892 133.965 722.636C133.365 721.757 132.836 720.833 132.273 719.93C130.203 716.615 125.749 711.869 119.584 711.869C110.701 711.869 106.977 716.167 106.69 718.746C106.492 720.532 104.507 726.164 107.11 733.645M151.102 771.467C153.871 770.512 159.468 767.857 159.697 764.877C159.826 763.207 159.84 760.919 159.811 758.86C159.774 756.214 159.113 753.601 157.576 751.447C156.565 750.031 155.251 748.396 153.68 746.826C149.669 742.814 146.566 740.809 144.56 733.645C142.956 727.915 139.45 720.752 138.208 718.746C136.394 715.881 131.102 711.124 127.893 709.29C123.881 706.998 114.712 706.712 111.274 709.291C107.836 711.869 104.684 713.875 104.684 720.179C104.684 725.222 106.301 731.258 107.11 733.645" stroke="#132953" stroke-width="3.43834"/>
<path d="M248.555 429.214C248.555 424.63 252.011 398.311 252.011 381.788C245.708 344.826 228.212 368.619 228.212 388.527C228.212 395.832 231.745 437.794 233.1 467.747C234.403 496.555 228.194 512.181 228.194 512.743C228.194 513.889 230.504 518.324 230.79 519.47C231.077 520.617 232.223 522.622 232.509 515.746C232.796 508.869 234.515 504.284 235.948 503.711C237.38 503.138 240.246 509.729 240.819 511.448C241.392 513.167 237.667 516.892 235.948 521.763C234.572 525.66 235.375 529.117 235.948 530.359C239.1 526.634 246.034 518.726 248.555 516.892C251.707 514.6 243.684 489.385 243.971 485.374C244.257 481.362 248.555 434.945 248.555 429.214Z" fill="#F5D0B9" stroke="#670E00" stroke-width="3.43834" stroke-linecap="round" stroke-linejoin="round"/>
<path d="M221.621 370.189C230.504 355.863 204.254 292.964 211.895 289.813C255.734 296.689 264.043 374.052 264.616 376.917C265.189 379.782 225.633 387.094 225.633 387.094L221.621 370.189Z" fill="#9FAEE3"/>
<path d="M209.587 285.95C257.151 297.124 264.043 374.052 264.616 376.917C265.189 379.782 227.065 387.094 227.065 387.094V371.908" stroke="#7285CA" stroke-width="3.43834" stroke-linecap="round" stroke-linejoin="round"/>
<path d="M204.695 123.228C202.023 120.855 222.534 116.483 224.502 115.317C234.851 112.117 241.492 115.994 246.852 117.211C252.211 118.427 256.89 120.119 256.02 119.901C251.436 118.755 236.653 116.602 231.914 117.211C227.176 117.819 208.035 126.194 204.695 123.228Z" fill="#670E00" stroke="#670E00" stroke-width="3.43834" stroke-linecap="round" stroke-linejoin="round"/>
<path d="M174.646 134.801C180.663 147.121 180.95 153.138 178.657 172.622" stroke="#670E00" stroke-width="3.43834" stroke-linecap="round" stroke-linejoin="round"/>
</svg>
