<svg width="356" height="1801" viewBox="0 0 356 1801" fill="none" xmlns="http://www.w3.org/2000/svg">
<path d="M301.077 0L5.91018 4.29835e-05C-11.8729 345.39 13.769 568.181 39.1861 789.018C43.4286 825.88 47.6649 862.687 51.6919 900C74.8516 1139.22 55.0679 1373.3 28.4859 1683.76C25.2558 1721.49 21.9287 1760.34 18.5699 1800.49H315.07C354.375 1427.36 380.33 1120.5 318.636 693.517C295.515 533.5 284.793 305.417 301.077 0Z" fill="#E5941A"/>
<path d="M44.3303 20.0002L40.5573 32.2452" stroke="#C88218" stroke-width="12" stroke-linecap="round" stroke-linejoin="round"/>
<path d="M161.33 42.0002L157.557 54.2452" stroke="#C88218" stroke-width="12" stroke-linecap="round" stroke-linejoin="round"/>
<path d="M268.33 481L264.557 493.245" stroke="#C88218" stroke-width="12" stroke-linecap="round" stroke-linejoin="round"/>
<path d="M226.287 301L222.514 313.245" stroke="#C88218" stroke-width="12" stroke-linecap="round" stroke-linejoin="round"/>
<path d="M59.3303 462L55.5573 474.245" stroke="#C88218" stroke-width="12" stroke-linecap="round" stroke-linejoin="round"/>
<path d="M165.287 412L161.514 424.245" stroke="#C88218" stroke-width="12" stroke-linecap="round" stroke-linejoin="round"/>
<path d="M63.2871 213L59.5141 225.245" stroke="#C88218" stroke-width="12" stroke-linecap="round" stroke-linejoin="round"/>
<path d="M233.557 584L237.33 596.245" stroke="#C88218" stroke-width="12" stroke-linecap="round" stroke-linejoin="round"/>
<path d="M79.5574 690L83.3304 702.245" stroke="#C88218" stroke-width="12" stroke-linecap="round" stroke-linejoin="round"/>
<path d="M258.33 835L254.557 847.245" stroke="#C88218" stroke-width="12" stroke-linecap="round" stroke-linejoin="round"/>
<path d="M211.514 1248.25L215.287 1236" stroke="#C88218" stroke-width="12" stroke-linecap="round" stroke-linejoin="round"/>
<path d="M113.514 1759.25L117.287 1747" stroke="#C88218" stroke-width="12" stroke-linecap="round" stroke-linejoin="round"/>
<path d="M103.825 1605.48L107.598 1593.24" stroke="#C88218" stroke-width="12" stroke-linecap="round" stroke-linejoin="round"/>
<path d="M248.254 1624.48L252.027 1612.24" stroke="#C88218" stroke-width="12" stroke-linecap="round" stroke-linejoin="round"/>
<path d="M268.254 980.732L272.027 968.487" stroke="#C88218" stroke-width="12" stroke-linecap="round" stroke-linejoin="round"/>
<path d="M149.287 900.245L145.514 888" stroke="#C88218" stroke-width="12" stroke-linecap="round" stroke-linejoin="round"/>
<path d="M292.598 1396.48L288.825 1384.24" stroke="#C88218" stroke-width="12" stroke-linecap="round" stroke-linejoin="round"/>
<path d="M243.028 1514.73L239.255 1502.49" stroke="#C88218" stroke-width="12" stroke-linecap="round" stroke-linejoin="round"/>
<path d="M138.287 237.245L134.514 225" stroke="#C88218" stroke-width="12" stroke-linecap="round" stroke-linejoin="round"/>
<path d="M113.825 1251.48L117.598 1239.24" stroke="#C88218" stroke-width="12" stroke-linecap="round" stroke-linejoin="round"/>
</svg>
